<svg width="952" height="572" viewBox="0 0 952 572" fill="none" xmlns="http://www.w3.org/2000/svg">
<path fill-rule="evenodd" clip-rule="evenodd" d="M1176.67 569.674C1334.65 547.753 1418.18 345.948 1456.27 204.099C1490.84 75.381 1409.97 -38.5142 1372.22 -158.468C1347.72 -236.294 1294.32 -298.148 1273.34 -377.155C1247.26 -475.325 1284.76 -588.899 1234.54 -676.767C1170.07 -789.563 1097.74 -969.597 949.725 -943.349C784.545 -914.057 750.134 -693.266 638.543 -571.078C579.446 -506.37 524.055 -440.347 447.504 -393.437C305.252 -306.266 31.9508 -328.356 2.41519 -181.263C-26.4313 -37.6017 260.452 -47.5873 357.483 54.8813C419.805 120.695 377.934 250.021 457.276 299.086C536.541 348.104 666.148 267.509 755.923 301.277C919.254 362.711 990.914 595.448 1176.67 569.674Z" fill="#E31818"/>
</svg>
