<svg width="1447" height="1225" viewBox="0 0 1447 1225" fill="none" xmlns="http://www.w3.org/2000/svg">
<path fill-rule="evenodd" clip-rule="evenodd" d="M766.755 1171.3C646.441 1173.12 529.758 1246.85 414.19 1217.58C297.846 1188.11 214.215 1098.11 141.936 1013.03C70.9141 929.423 5.91078 834.458 0.274196 730.34C-5.2016 629.192 80.8135 544.174 111.264 446.463C140.272 353.382 115.087 246.727 176.042 166.335C237.686 85.0354 337.799 16.9737 447.962 2.40101C558.388 -12.2066 653.403 73.4332 763.706 88.5967C853.851 100.989 943.064 76.1015 1033.98 82.9622C1155.58 92.1378 1313.93 52.6497 1390.42 135.889C1466.86 219.064 1362.9 345.503 1373.05 451.93C1381.55 541.035 1457.27 620.371 1445.09 709.162C1432.67 799.722 1357.08 870.973 1304.74 949.856C1245.44 1039.23 1221.62 1163 1114.8 1206.97C1007.71 1251.05 885.039 1169.51 766.755 1171.3Z" fill="white" fill-opacity="0.9"/>
</svg>
