<svg width="716" height="668" viewBox="0 0 716 668" fill="none" xmlns="http://www.w3.org/2000/svg">
<path fill-rule="evenodd" clip-rule="evenodd" d="M265.855 79.9209C324.787 59.6244 371.026 6.68322 432.339 1.52386C494.064 -3.6701 548.869 24.3968 597.342 52.027C644.973 79.1768 691.364 112.55 709.928 159.753C727.962 205.608 698.526 258.805 698.359 308.881C698.2 356.586 726.769 401.799 708.963 448.806C690.957 496.343 652.011 543.983 600.008 568.53C547.881 593.136 488.134 568.925 431.553 579.753C385.311 588.603 345.182 614.529 299.399 626.06C238.168 641.482 166.23 685.334 115.962 659.238C65.7324 633.161 97.7146 557.924 76.5796 510.384C58.8843 470.582 9.58797 446.164 2.11741 403.163C-5.50199 359.306 20.8919 314.157 34.6857 269.241C50.3143 218.35 43.2637 157.306 89.165 119.715C135.183 82.0272 207.917 99.8751 265.855 79.9209Z" fill="white" fill-opacity="0.9"/>
</svg>
